<svg id="Layer_1" enable-background="new 0 0 100 100" viewBox="0 0 100 100" xmlns="http://www.w3.org/2000/svg" xmlns:xlink="http://www.w3.org/1999/xlink"><linearGradient id="SVGID_1_" gradientUnits="userSpaceOnUse" x1="-2.332" x2="102.121" y1="-3.749" y2="103.539"><stop offset=".1843576" stop-color="#29abe2"/><stop offset=".8211977" stop-color="#6200d2"/></linearGradient><path d="m50 2.5c-26.2009583 0-47.5 21.2990417-47.5 47.5s21.2990417 47.5 47.5 47.5c26.1819382 0 47.5-21.2990417 47.5-47.5s-21.3180618-47.5-47.5-47.5zm-3.2110062 68.7610016c0 1.0449829-.8550224 1.9000015-1.8999977 1.9000015h-16.1499996c-1.0639954 0-1.8999996-.8550186-1.8999996-1.9000015v-16.169014c0-1.0449791.8360043-1.9000015 1.8999996-1.9000015h16.1499996c1.0449753 0 1.8999977.8550224 1.8999977 1.9000015zm0-26.3720055c0 1.0639954-.8550224 1.8999977-1.8999977 1.8999977h-16.1499996c-1.0639954 0-1.8999996-.8360023-1.8999996-1.8999977v-16.1500015c0-1.0449753.8360043-1.8999996 1.8999996-1.8999996h16.1499996c1.0449753 0 1.8999977.8550243 1.8999977 1.8999996zm26.3720093 26.3720055c0 1.0449829-.8550186 1.9000015-1.9000015 1.9000015h-16.169014c-1.0449791 0-1.9000015-.8550186-1.9000015-1.9000015v-16.169014c0-1.0449791.8550224-1.9000015 1.9000015-1.9000015h16.169014c1.0449829 0 1.9000015.8550224 1.9000015 1.9000015zm0-26.3720055c0 1.0639954-.8550186 1.8999977-1.9000015 1.8999977h-16.169014c-1.0449791 0-1.9000015-.8360023-1.9000015-1.8999977v-16.1500015c0-1.0449753.8550224-1.8999996 1.9000015-1.8999996h16.169014c1.0449829 0 1.9000015.8550243 1.9000015 1.8999996z" fill="url(#SVGID_1_)"/></svg>