<svg id="Capa_1" enable-background="new 0 0 496.995 496.995" height="512" viewBox="0 0 496.995 496.995" width="512" xmlns="http://www.w3.org/2000/svg"><g><path d="m259.498 40.7v454.186c121.513-48.413 207.499-168.007 207.499-307.891v-142.031c0-1.558-.482-3.036-1.326-4.264z" fill="#7d8fe5"/><path d="m436.997 186.994v-147.247h-248.5l60 457.247c3.736 0 7.472-.703 11.001-2.109 103.945-48.412 177.499-168.006 177.499-307.891z" fill="#95b0ed"/><path d="m462.108 37.927c-8.32-3.055-16.693-5.921-25.111-8.609l-30 10.429 30 21.547 28.674-20.594c-.855-1.244-2.082-2.229-3.563-2.773z" fill="#acd2f6"/><path d="m29.997 44.964v142.031c0 139.884 85.986 259.478 207.499 307.891 3.529 1.406 7.265 2.109 11.001 2.109v-456.295h-217.173c-.845 1.227-1.327 2.706-1.327 4.264z" fill="#acd2f6"/><path d="m436.997 61.294v-31.976c-130.829-41.773-272.817-38.91-402.111 8.609-1.481.544-2.708 1.53-3.563 2.773l217.174 155.981z" fill="#c4f3ff"/><path d="m248.497 434.383c-44.595-20.162-82.743-52.155-110.853-93.101-31.171-45.402-47.647-98.755-47.647-154.288v-104.153c51.317-15.174 104.464-22.847 158.5-22.847s107.183 7.673 158.5 22.847v104.153c0 55.533-16.476 108.886-47.647 154.288-28.11 40.946-66.26 72.941-110.853 93.101z" fill="#fff"/><path d="m248.497 401.018c-34.278-17.984-63.861-44.292-86.121-76.715-27.725-40.383-42.379-87.863-42.379-137.309v-81.246c41.849-10.461 84.972-15.754 128.5-15.754s86.651 5.293 128.5 15.754v81.246c0 49.445-14.654 96.926-42.379 137.309-22.26 32.424-51.843 58.731-86.121 76.715z" fill="#666ddc"/><path d="m346.997 99.185-98.5 301.833c34.278-17.983 63.861-44.291 86.121-76.715 27.725-40.383 42.379-87.863 42.379-137.309v-81.246c-9.931-2.482-19.936-4.664-30-6.563z" fill="#5c2bc8"/><path d="m248.497 89.994-50 155.512 50 155.512c26.275-17.983 48.952-44.291 66.015-76.715 21.252-40.383 32.485-87.863 32.485-137.309v-87.809c-32.341-6.102-65.301-9.191-98.5-9.191z" fill="#4e4cd3"/><path d="m119.997 105.748v81.246c0 49.445 14.654 96.926 42.379 137.309 22.259 32.423 51.842 58.73 86.121 76.715v-311.024c-43.528 0-86.651 5.293-128.5 15.754z" fill="#666ddc"/></g></svg>